<?xml version="1.0" standalone="no"?>
<svg viewBox="0 0 200 200" xmlns="http://www.w3.org/2000/svg">
  <path fill="#A7F0BA" d="M40.4,-71.2C53.6,-62.3,66.5,-54.1,69.3,-42.3C72,-30.5,64.7,-15.3,64.6,0C64.6,15.2,71.7,30.4,66.3,37.6C60.9,44.9,43,44.2,29.9,46.7C16.7,49.2,8.4,54.8,-1.2,57C-10.9,59.1,-21.7,57.8,-33.1,54.3C-44.4,50.7,-56.2,45,-60.9,35.6C-65.6,26.2,-63,13.1,-63.1,0C-63.1,-13.2,-65.8,-26.3,-62.6,-38.4C-59.5,-50.5,-50.7,-61.5,-39.3,-71.4C-27.9,-81.4,-13.9,-90.3,-0.2,-89.9C13.6,-89.6,27.2,-80.1,40.4,-71.2Z" transform="translate(100 100)" />
</svg>
