<?xml version="1.0" standalone="no"?>
<svg viewBox="0 0 200 200" xmlns="http://www.w3.org/2000/svg">
  <path fill="#A7F0BA" d="M41.9,-59.2C51.6,-50.6,55,-34.8,60.5,-19.3C66,-3.9,73.5,11.2,69.6,22.4C65.6,33.5,50.2,40.6,36.7,52.4C23.1,64.2,11.6,80.6,-2.8,84.5C-17.2,88.4,-34.5,79.8,-45.5,67.2C-56.5,54.6,-61.3,38.1,-66.6,21.7C-71.8,5.3,-77.5,-10.9,-72.5,-22.7C-67.4,-34.4,-51.6,-41.8,-37.7,-49.1C-23.8,-56.4,-11.9,-63.7,2.1,-66.5C16.1,-69.4,32.1,-67.9,41.9,-59.2Z" transform="translate(100 100)" />
</svg>
